<?xml version="1.0" encoding="iso-8859-1"?>
<!DOCTYPE svg PUBLIC "-//W3C//DTD SVG 1.1//EN" "http://www.w3.org/Graphics/SVG/1.1/DTD/svg11.dtd">
<svg version="1.1" id="Capa_1" xmlns="http://www.w3.org/2000/svg" xmlns:xlink="http://www.w3.org/1999/xlink"
	 width="120" height="270" viewBox="0 0 116 267"
	 transform="translate(56, 185)"
	 >
<g>
	<path

d=
"
M 0 0
a 28 28 0 1 1 50 0
a 42 42 0 1 1 -75 -40
c 5 -20 100 -80 50 -140
c -4 -4 -5 -4 -9 0
c -50 50 70 290 -45 256
a 20 20 0 1 0 -20 -5
c 15 18 65 20 72 -20
s -22 -160 -17 -190
c 6 -60 55 -20 5 35
c -110 85 -6 180 45 100
c 18 -35 -20 -55 -41 -49
c -45 20 -10 65 -15 53
"

/>
</g>
</svg>